<?xml version="1.0" encoding="iso-8859-1"?>
<!-- Generator: Adobe Illustrator 19.0.0, SVG Export Plug-In . SVG Version: 6.00 Build 0)  -->
<svg version="1.1" id="Layer_1" xmlns="http://www.w3.org/2000/svg" xmlns:xlink="http://www.w3.org/1999/xlink" x="0px" y="0px"
	 viewBox="0 0 512 512" style="enable-background:new 0 0 512 512;" xml:space="preserve">
<path style="fill:#385C8E;" d="M384.016,512c-7.826,0-15.36-4.322-19.097-11.797l-36.771-73.542H183.851l-36.77,73.542
	c-5.269,10.536-18.082,14.809-28.62,9.542c-10.539-5.271-14.809-18.085-9.54-28.622l42.666-85.335
	c3.612-7.228,10.999-11.793,19.08-11.793h170.665c8.081,0,15.468,4.565,19.08,11.793l42.666,85.335
	c5.269,10.537,0.998,23.351-9.54,28.622C390.477,511.275,387.22,512,384.016,512z"/>
<g>
	<path style="fill:#1D3366;" d="M403.079,481.122l-42.666-85.335c-3.612-7.228-10.999-11.793-19.08-11.793H256v42.666h72.147
		l36.771,73.542c3.738,7.475,11.271,11.797,19.097,11.797c3.206,0,6.461-0.725,9.523-2.256
		C404.077,504.472,408.348,491.66,403.079,481.122z"/>
	<path style="fill:#1D3366;" d="M256,85.332c-11.782,0-21.333-9.552-21.333-21.333V21.333C234.667,9.552,244.218,0,256,0
		s21.333,9.552,21.333,21.333v42.666C277.333,75.781,267.782,85.332,256,85.332z"/>
</g>
<path style="fill:#D6E5F6;" d="M469.331,42.666H42.669c-11.782,0-21.333,9.552-21.333,21.333v341.328
	c0,11.782,9.552,21.333,21.333,21.333h426.662c11.782,0,21.333-9.552,21.333-21.333V63.999
	C490.664,52.218,481.113,42.666,469.331,42.666z"/>
<path style="fill:#A4C6EC;" d="M469.331,42.666H256V426.66h213.331c11.782,0,21.333-9.552,21.333-21.333V63.999
	C490.664,52.218,481.113,42.666,469.331,42.666z"/>
<path style="fill:#D8145D;" d="M125.265,326.391c-5.46,0-10.92-2.084-15.084-6.248c-8.331-8.33-8.331-21.838,0-30.169
	l100.566-100.566c4.001-4.002,9.426-6.248,15.084-6.248l0,0c5.659,0,11.085,2.247,15.085,6.248l45.253,45.256l85.482-85.479
	c8.331-8.331,21.839-8.331,30.169,0c8.331,8.33,8.331,21.838,0,30.169L301.255,279.919c-4.001,4.001-9.428,6.248-15.084,6.248l0,0
	c-5.659,0-11.085-2.247-15.084-6.248l-45.253-45.256l-85.48,85.482C136.185,324.307,130.725,326.391,125.265,326.391z"/>
<path style="fill:#A90140;" d="M401.819,149.185c-8.33-8.331-21.837-8.331-30.169,0l-85.48,85.479L256,204.493v60.34l15.084,15.085
	c4.001,4.001,9.426,6.248,15.084,6.248s11.085-2.247,15.084-6.248l100.566-100.564C410.152,171.023,410.152,157.515,401.819,149.185
	z"/>
<g>
</g>
<g>
</g>
<g>
</g>
<g>
</g>
<g>
</g>
<g>
</g>
<g>
</g>
<g>
</g>
<g>
</g>
<g>
</g>
<g>
</g>
<g>
</g>
<g>
</g>
<g>
</g>
<g>
</g>
</svg>
